<svg xmlns="http://www.w3.org/2000/svg" viewBox="0 0 32 40" x="0px" y="0px"><title>user</title><g><path d="M25,30H7a1,1,0,0,1-1-1V25a10,10,0,0,1,20,0v4A1,1,0,0,1,25,30ZM8,28H24V25A8,8,0,0,0,8,25Z"/><path d="M16,14a6,6,0,1,1,6-6A6,6,0,0,1,16,14ZM16,4a4,4,0,1,0,4,4A4,4,0,0,0,16,4Z"/></g><text x="0" y="47" fill="#000000" font-size="5px" font-weight="bold" font-family="'Helvetica Neue', Helvetica, Arial-Unicode, Arial, Sans-serif">Created by Rendra Tri Kusuma</text><text x="0" y="52" fill="#000000" font-size="5px" font-weight="bold" font-family="'Helvetica Neue', Helvetica, Arial-Unicode, Arial, Sans-serif">from the Noun Project</text></svg>